# xmcd
#
# Track frame offsets: 
#        150
#        14741
#        32711
#        45814
#        64716
#        88046
#        100624
#        121238
#        133720
#        153349
#        170791
#        185033
#
# Disc length: 2652 seconds
#
# Revision: 0
# Processed by: cddbd v1.5.2PL0 Copyright (c) Steve Scherf et al.
# Submitted via: ExactAudioCopy v0.95b4
#
DISCID=9a0a5a0c
DTITLE=Dave and Dyno - Untreated and Released
DYEAR=2009
DGENRE=Country
TTITLE0=Jenny Lynn
TTITLE1=Rescued
TTITLE2=Whiskey's Girl
TTITLE3=How's The Weather
TTITLE4=True Story
TTITLE5=Me Alone With Elvis
TTITLE6=marykarenkelly
TTITLE7=Next Ex-Girlfriend
TTITLE8=Mary Doxie
TTITLE9=Rusty Knights And Broken Angels
TTITLE10=Roadkill Chili
TTITLE11=Bomb 'em Til They Build A Wal-Mart
EXTD=
EXTT0=
EXTT1=
EXTT2=
EXTT3=
EXTT4=
EXTT5=
EXTT6=
EXTT7=
EXTT8=
EXTT9=
EXTT10=
EXTT11=
PLAYORDER=
